<?xml version="1.0" encoding="UTF-8" standalone="no"?>
<!-- Generator: Adobe Illustrator 20.1.0, SVG Export Plug-In . SVG Version: 6.00 Build 0)  -->

<svg
   xmlns:dc="http://purl.org/dc/elements/1.1/"
   xmlns:cc="http://creativecommons.org/ns#"
   xmlns:rdf="http://www.w3.org/1999/02/22-rdf-syntax-ns#"
   xmlns:svg="http://www.w3.org/2000/svg"
   xmlns="http://www.w3.org/2000/svg"
   xmlns:sodipodi="http://sodipodi.sourceforge.net/DTD/sodipodi-0.dtd"
   xmlns:inkscape="http://www.inkscape.org/namespaces/inkscape"
   version="1.1"
   id="Layer_1"
   x="0px"
   y="0px"
   viewBox="0 0 11.835 11.917"
   style="enable-background:new 0 0 11.835 11.917;"
   xml:space="preserve"
   inkscape:version="0.48.4 r9939"
   width="100%"
   height="100%"
   sodipodi:docname="C:\Users\VETER\AppData\Local\Temp\ink_ext_XXXXXX.svg9SDFSY"><sodipodi:namedview
   pagecolor="#ffffff"
   bordercolor="#666666"
   borderopacity="1"
   objecttolerance="10"
   gridtolerance="10"
   guidetolerance="10"
   inkscape:pageopacity="0"
   inkscape:pageshadow="2"
   inkscape:window-width="1366"
   inkscape:window-height="706"
   id="namedview5"
   showgrid="false"
   inkscape:zoom="7.0016447"
   inkscape:cx="-10.446683"
   inkscape:cy="-5.5051383"
   inkscape:window-x="-8"
   inkscape:window-y="-8"
   inkscape:window-maximized="1"
   inkscape:current-layer="g3790" /><metadata
   id="metadata9"><rdf:RDF><cc:Work
       rdf:about=""><dc:format>image/svg+xml</dc:format><dc:type
         rdf:resource="http://purl.org/dc/dcmitype/StillImage" /><dc:title></dc:title></cc:Work></rdf:RDF></metadata><defs
   id="defs7" />

<g
   id="g3790"
   transform="translate(-38.358671,24.834227)"><path
     id="path3-4"
     d="m 45.731545,-18.893304 4.234,-4.263 c 0.385,-0.388 0.385,-1.016 0,-1.404 -0.385,-0.388 -1.009,-0.388 -1.394,0 l -4.235,4.263 -4.233,-4.263 c -0.385,-0.388 -1.009,-0.388 -1.395,0 -0.385,0.388 -0.385,1.016 0,1.404 l 4.234,4.263 -4.234,4.263 c -0.385,0.388 -0.385,1.017 0,1.404 0.193,0.194 0.445,0.291 0.697,0.291 0.252,0 0.505,-0.097 0.697,-0.291 l 4.234,-4.263 4.234,4.263 c 0.193,0.194 0.445,0.291 0.697,0.291 0.252,0 0.504,-0.097 0.697,-0.291 0.385,-0.388 0.385,-1.016 0,-1.404 l -4.233,-4.263 z"
     style="fill:#c1c2cb;fill-opacity:1"
     inkscape:connector-curvature="0" /></g></svg>