<?xml version="1.0" encoding="iso-8859-1"?>
<!-- Generator: Adobe Illustrator 20.1.0, SVG Export Plug-In . SVG Version: 6.00 Build 0)  -->
<svg version="1.1" id="Layer_1" xmlns="http://www.w3.org/2000/svg" xmlns:xlink="http://www.w3.org/1999/xlink" x="0px" y="0px"
	 viewBox="0 0 15 9" style="enable-background:new 0 0 15 9;" xml:space="preserve">
<g>
	<path style="fill:#8F8F94;" d="M11.063,0H0v4.5V9h11.063L15,4.5L11.063,0z M10.609,8H1V4.5V1h9.609l3.063,3.5L10.609,8z"/>
	<path style="fill:#8F8F94;" d="M9.531,3c-0.827,0-1.5,0.673-1.5,1.5S8.704,6,9.531,6s1.5-0.673,1.5-1.5S10.358,3,9.531,3z M9.531,5
		c-0.276,0-0.5-0.224-0.5-0.5S9.256,4,9.531,4s0.5,0.224,0.5,0.5S9.807,5,9.531,5z"/>
	<rect x="2.031" y="3" style="fill:#8F8F94;" width="4" height="1"/>
	<rect x="2.031" y="5" style="fill:#8F8F94;" width="2" height="1"/>
</g>
</svg>
