<?xml version="1.0" encoding="iso-8859-1"?>
<!-- Generator: Adobe Illustrator 20.1.0, SVG Export Plug-In . SVG Version: 6.00 Build 0)  -->
<svg version="1.1" id="Layer_1" xmlns="http://www.w3.org/2000/svg" xmlns:xlink="http://www.w3.org/1999/xlink" x="0px" y="0px"
	 viewBox="0 0 11 11" style="enable-background:new 0 0 11 11;" xml:space="preserve">
<g>
	<path style="fill:#8F8F94;" d="M9,8.5v-8C9,0.224,8.776,0,8.5,0h-8C0.224,0,0,0.224,0,0.5v8C0,8.776,0.224,9,0.5,9h8
		C8.776,9,9,8.776,9,8.5z M8,8H1V1h7V8z"/>
	<path style="fill:#8F8F94;" d="M10.5,2C10.224,2,10,2.224,10,2.5V10H2.5C2.224,10,2,10.224,2,10.5S2.224,11,2.5,11h8
		c0.276,0,0.5-0.224,0.5-0.5v-8C11,2.224,10.776,2,10.5,2z"/>
</g>
</svg>
